<svg width="26" height="24" viewBox="0 0 26 24" xmlns="http://www.w3.org/2000/svg">
    <path d="M19.861 4.181h-2.195A5.236 5.236 0 0 0 12.544 0H5.227A5.233 5.233 0 0 0 0 5.227v9.408a4.181 4.181 0 0 0 3.2 4.052 3.659 3.659 0 1 0 7.213.129h4.267a3.622 3.622 0 0 0-.043.523 3.659 3.659 0 0 0 7.317 0 3.554 3.554 0 0 0-.064-.652 4.181 4.181 0 0 0 3.198-4.052V9.408a5.233 5.233 0 0 0-5.227-5.227zm3.136 5.227v1.045h-5.226V6.272h2.09a3.136 3.136 0 0 1 3.136 3.136zM2.091 14.635V5.227A3.136 3.136 0 0 1 5.227 2.09h7.317a3.136 3.136 0 0 1 3.136 3.136v11.498H4.181a2.09 2.09 0 0 1-2.09-2.09zm6.272 4.704a1.568 1.568 0 1 1-3.136 0c0-.179.033-.356.097-.523h2.941c.064.167.097.344.098.523zm9.93 1.568a1.568 1.568 0 0 1-1.568-1.568c0-.179.034-.356.098-.523h2.941c.064.167.097.344.097.523 0 .866-.702 1.568-1.568 1.568zm2.614-4.182H17.77v-4.181h5.226v2.09a2.09 2.09 0 0 1-2.09 2.091z" fill="#FFF" fill-rule="nonzero"/>
</svg>
