<svg width="21" height="21" viewBox="0 0 21 21" xmlns="http://www.w3.org/2000/svg">
    <path d="M9.108.479a1.82 1.82 0 0 1 2.461 0l.149.136a.45.45 0 0 0 .484.08l.184-.08a1.82 1.82 0 0 1 2.328.8l.096.176a.45.45 0 0 0 .431.233l.2-.016a1.82 1.82 0 0 1 1.943 1.512l.034.198a.45.45 0 0 0 .332.361l.195.05a1.82 1.82 0 0 1 1.346 2.06l-.033.199a.45.45 0 0 0 .197.45l.168.11a1.82 1.82 0 0 1 .605 2.385l-.096.177a.45.45 0 0 0 .04.49l.124.158a1.82 1.82 0 0 1-.203 2.453l-.148.137a.45.45 0 0 0-.12.475l.064.19a1.82 1.82 0 0 1-.988 2.254l-.184.082a.45.45 0 0 0-.269.41v.202a1.82 1.82 0 0 1-1.667 1.81l-.2.017a.45.45 0 0 0-.387.302l-.066.19a1.82 1.82 0 0 1-2.165 1.171l-.195-.049a.45.45 0 0 0-.464.16l-.124.158a1.82 1.82 0 0 1-2.427.405l-.169-.11a.45.45 0 0 0-.49 0l-.17.11a1.82 1.82 0 0 1-2.427-.405l-.123-.159a.45.45 0 0 0-.465-.159l-.195.049A1.82 1.82 0 0 1 4.55 18.48l-.066-.19a.45.45 0 0 0-.387-.302l-.2-.017a1.82 1.82 0 0 1-1.667-1.81v-.202a.45.45 0 0 0-.27-.41l-.183-.082a1.82 1.82 0 0 1-.989-2.253l.065-.19a.45.45 0 0 0-.12-.476l-.148-.137a1.82 1.82 0 0 1-.203-2.453L.505 9.8a.45.45 0 0 0 .04-.489L.45 9.133a1.82 1.82 0 0 1 .604-2.386l.168-.11a.45.45 0 0 0 .198-.45l-.033-.198a1.82 1.82 0 0 1 1.346-2.06l.195-.05a.45.45 0 0 0 .332-.36l.034-.2a1.82 1.82 0 0 1 1.942-1.51l.2.015a.45.45 0 0 0 .432-.233l.096-.177A1.82 1.82 0 0 1 8.292.615l.184.08a.45.45 0 0 0 .484-.08zm1.448 1.105a.32.32 0 0 0-.434 0l-.148.136a1.95 1.95 0 0 1-2.098.35l-.184-.08a.32.32 0 0 0-.41.14l-.096.177a1.95 1.95 0 0 1-1.87 1.013l-.201-.017a.32.32 0 0 0-.342.267l-.034.198A1.95 1.95 0 0 1 3.3 5.333l-.195.05a.32.32 0 0 0-.237.362l.033.199a1.95 1.95 0 0 1-.855 1.947l-.168.11a.32.32 0 0 0-.106.42l.095.178a1.95 1.95 0 0 1-.175 2.12l-.124.158a.32.32 0 0 0 .036.432l.148.137a1.95 1.95 0 0 1 .522 2.062l-.065.19a.32.32 0 0 0 .174.397l.184.081a1.95 1.95 0 0 1 1.163 1.78v.202a.32.32 0 0 0 .294.319l.2.017A1.95 1.95 0 0 1 5.903 17.8l.066.19a.32.32 0 0 0 .38.206l.196-.049a1.95 1.95 0 0 1 2.011.69l.124.16a.32.32 0 0 0 .428.07l.169-.11a1.95 1.95 0 0 1 2.126 0l.169.11c.14.091.325.06.427-.07l.124-.16a1.95 1.95 0 0 1 2.012-.69l.195.05a.32.32 0 0 0 .381-.207l.066-.19a1.95 1.95 0 0 1 1.678-1.306l.2-.017a.32.32 0 0 0 .294-.32v-.2a1.95 1.95 0 0 1 1.164-1.78l.184-.082a.32.32 0 0 0 .174-.397l-.065-.19a1.95 1.95 0 0 1 .522-2.062l.148-.137a.32.32 0 0 0 .035-.432l-.123-.159a1.95 1.95 0 0 1-.175-2.119l.095-.177a.32.32 0 0 0-.106-.42l-.169-.11a1.95 1.95 0 0 1-.854-1.948l.033-.199a.32.32 0 0 0-.237-.363l-.195-.05a1.95 1.95 0 0 1-1.44-1.564l-.034-.198a.32.32 0 0 0-.342-.267l-.2.017a1.95 1.95 0 0 1-1.871-1.013l-.096-.176a.32.32 0 0 0-.41-.141l-.184.08a1.95 1.95 0 0 1-2.098-.35zm.483 9.784v5.965a7.083 7.083 0 0 1-1.5-.01v-5.955h1.5zm3.1 0v4.88a6.972 6.972 0 0 1-1.5.733v-5.613h1.5zm-6.2 0v5.578a6.977 6.977 0 0 1-1.5-.764v-4.814h1.5zm9.3 0v.179l-.009.057a6.972 6.972 0 0 1-1.49 3.217l-.001-3.453h1.5zm-12.4 0v3.33a6.967 6.967 0 0 1-1.43-3.33h1.43zm5.5-7.7 1.028 2.084 2.3.334-1.664 1.623.393 2.29-2.057-1.081L8.282 10l.393-2.291L7.01 6.086l2.3-.334 1.029-2.084z" fill="#FFF" fill-rule="evenodd"/>
</svg>
