<svg width="23" height="23" viewBox="0 0 23 23" xmlns="http://www.w3.org/2000/svg">
    <path d="M21.701.819a2.802 2.802 0 0 0-2.257-.805C16.822.268 8.004 1.36 4.599 4.761a9.322 9.322 0 0 0-.63 12.466L.272 20.926A.939.939 0 0 0 1.6 22.253l3.698-3.698a9.32 9.32 0 0 0 12.47-.626c3.45-3.452 4.506-12.242 4.749-14.853A2.804 2.804 0 0 0 21.7.819zm-5.256 15.779a7.439 7.439 0 0 1-9.8.616l9.042-9.041a.939.939 0 0 0-1.327-1.327l-9.046 9.04a7.438 7.438 0 0 1 .616-9.798c2.356-2.354 8.85-3.741 13.695-4.206a.939.939 0 0 1 1.026 1.017c-.47 5.056-1.822 11.31-4.211 13.699h.005z" fill="#FFF" fill-rule="nonzero"/>
</svg>
