<svg width="21" height="24" viewBox="0 0 21 24" xmlns="http://www.w3.org/2000/svg">
    <g fill="#FFF" fill-rule="nonzero">
        <path d="M17.183 8.267V6.869a6.87 6.87 0 0 0-13.739 0v1.398A4.907 4.907 0 0 0 .5 12.757v5.888a4.913 4.913 0 0 0 4.907 4.907h9.813a4.913 4.913 0 0 0 4.907-4.907v-5.888a4.907 4.907 0 0 0-2.944-4.49zM5.407 6.869a4.907 4.907 0 1 1 9.813 0v.982H5.407v-.982zm12.757 11.776a2.944 2.944 0 0 1-2.944 2.944H5.407a2.944 2.944 0 0 1-2.944-2.944v-5.888a2.944 2.944 0 0 1 2.944-2.944h9.813a2.944 2.944 0 0 1 2.944 2.944v5.888z"/>
        <path d="M10.313 13.739a.981.981 0 0 0-.981.981v1.963a.981.981 0 1 0 1.963 0V14.72a.981.981 0 0 0-.982-.981z"/>
    </g>
</svg>
