<svg width="55" height="57" viewBox="0 0 55 57" xmlns="http://www.w3.org/2000/svg">
    <g stroke="#EA3E70" stroke-width="1.58" fill="none" fill-rule="evenodd" stroke-linecap="round" stroke-linejoin="round">
        <path d="M27.5 42.75c0 2.755-2.924 4.987-6.531 4.987-3.607 0-6.532-2.232-6.532-4.987M40.563 42.75c0 2.755-2.925 4.987-6.532 4.987S27.5 45.505 27.5 42.75"/>
        <path d="M23.547 37.05h7.906a.711.711 0 0 1 .54 1.174l-3.414 3.98a1.422 1.422 0 0 1-2.158 0l-3.414-3.98a.711.711 0 0 1 .54-1.174zM16.768 28.99c1.022.983 1.836 1.769 3.384 1.769 1.55 0 2.873-.457 3.795-1.77M32.276 28.99c1.022.983 1.836 1.769 3.385 1.769 1.549 0 2.873-.457 3.795-1.77M27.448 1.425c3.156 2.213 5.242 6.043 5.242 10.397s-2.086 8.184-5.242 10.397c-3.788-2.213-6.29-6.043-6.29-10.397 0-4.306 2.447-8.1 6.164-10.323z"/>
        <path d="m27.498 21.896.002.286c-1.82 1.291-4 2.043-6.343 2.043-6.303 0-11.426-5.44-11.53-12.192l-.002-.286c1.82-1.291 4-2.043 6.343-2.043 1.875 0 3.646.482 5.211 1.336"/>
        <path d="M38.524 23.16c3.98-1.903 6.772-6.16 6.85-11.127l.001-.286c-1.82-1.291-4-2.043-6.343-2.043-2.336 0-4.51.747-6.326 2.032m-5.204 10.16-.002.286c1.82 1.291 4 2.043 6.343 2.043.235 0 .468-.008.7-.022"/>
        <path d="M39.008 9.737a13.06 13.06 0 0 0-1.52-5.966l-.135-.25a10.844 10.844 0 0 0-6.466 1.56M15.214 9.737a13.06 13.06 0 0 1 1.52-5.966l.134-.25a10.844 10.844 0 0 1 6.467 1.56M46.75 27.075c0 4.107-1.022 7.901-3.08 10.973 1.949 1.56 3.08 3.418 3.08 5.414 0 3.14-2.8 5.942-7.177 7.77l-.467.19c-.55.215-1.125.416-1.72.601l-.515.155c-.173.05-.348.099-.525.146l-.534.138-.544.13-.552.121-.562.112c-.283.054-.569.105-.857.152l-.582.09c-1.658.241-3.408.37-5.215.37s-3.557-.129-5.215-.37l-.582-.09a32.711 32.711 0 0 1-.857-.152l-.562-.112-.552-.121-.544-.13-.534-.138a28.31 28.31 0 0 1-.525-.146l-.515-.155a25.175 25.175 0 0 1-1.72-.602l-.467-.189c-4.377-1.828-7.177-4.63-7.177-7.77 0-1.996 1.131-3.855 3.08-5.414-2.058-3.072-3.08-6.866-3.08-10.973"/>
    </g>
</svg>
