<svg width="55" height="57" viewBox="0 0 55 57" xmlns="http://www.w3.org/2000/svg">
    <g fill="none" fill-rule="evenodd">
        <path d="M6.188 12.287c7.104.359 14.208-2.075 21.312-7.3 7.104 5.226 14.208 7.659 21.313 7.3v.732a71.1 71.1 0 0 1-2.164 17.408l-.587 2.32a25.57 25.57 0 0 1-12.63 16.233L27.5 52.187h0l-5.932-3.207a25.57 25.57 0 0 1-12.63-16.233l-.587-2.32a71.1 71.1 0 0 1-2.164-17.408v-.732h0z" stroke="#EA3E70" stroke-width="1.58" stroke-linecap="round" stroke-linejoin="round"/>
        <g transform="translate(17.188 17.1)">
            <g stroke="#EA3E70" stroke-linecap="round" stroke-linejoin="round" stroke-width="1.58">
                <ellipse cx="10.274" cy="11.048" rx="5.439" ry="5.7"/>
                <path d="M10.314 0h1.593H8.72h1.554l.04 5.165M15.135 2.962l-.034-.02L13.319 6M19.83 5.7l.796 1.432-1.593-2.864.777 1.397-4.292 2.618M19.83 17.1l-.797 1.432 1.593-2.864-.777 1.397-4.33-2.548M10.314 22.8H8.72h3.187-1.554l-.04-5.165M.798 17.1l-.797-1.432 1.594 2.864-.777-1.397 4.292-2.618M.798 5.7l.797-1.432L0 7.132l.777-1.397L5.11 8.283M19.768 11.513v-.041l-3.445-.072M14.947 19.95l.034-.02-1.662-3.13M5.493 19.838l.034.02L7.309 16.8M.86 11.287v.041l3.444.072M5.681 2.85l-.034.02L7.309 6"/>
            </g>
            <circle fill="#EA3E70" cx="10.314" cy="9.262" r="1"/>
            <ellipse fill="#EA3E70" cx="8.939" cy="12.825" rx="1.375" ry="1.425"/>
        </g>
    </g>
</svg>
