<svg width="55" height="58" viewBox="0 0 55 58" xmlns="http://www.w3.org/2000/svg">
    <g stroke="#EA3E70" stroke-width="1.58" fill="none" fill-rule="evenodd" stroke-linecap="round" stroke-linejoin="round">
        <path d="M4.064 49.222c2.82-4.742 4.601-7.839 5.345-9.289 1.115-2.175 1.356-5.56.918-8.422-.44-2.861.738-4.589 1.47-5.243.73-.655 3.24-1.828 5.247-.495 1.34.889 2.17 2.348 2.493 4.377 1.764-.9 3.281-.9 4.55 0 .162.115.318.24.467.372m1.631 2.984c.14 1.007-.056 2.104-.718 3.188-1.564 2.56-5.735 2.381-7.48 4.68-1.163 1.534-3.885 6.257-8.165 14.169M48.37 13.5a781.218 781.218 0 0 0-5.115 3.14m-3.964 2.553c-2.006 1.397-3.809 4.272-4.765 7.005-.955 2.732-2.806 3.705-3.759 3.94-.953.234-3.719.092-4.866-2.028-.765-1.413-.814-3.091-.146-5.035-1.98-.033-3.32-.745-4.018-2.136-1.047-2.086-.729-4.898 1.854-6.425 2.584-1.527 6.182.59 8.802-.622 1.493-.69 5.085-2.902 10.774-6.637M7.941 52.275l2.496-4.785M6.608 22.08h5.632m1.72-4.152-4.138-4.184m8.203-3.882v6.109M40.234 32.865l-5.628-.197m-1.864 4.09 3.99 4.324m-8.334 3.594.214-6.105"/>
        <path d="M13.108 29.647c.465-.796 1.703-1.506 2.718-1.004M24.795 19.898c-.538-.745-.71-2.2.12-2.987"/>
    </g>
</svg>
