<svg width="55" height="57" viewBox="0 0 55 57" xmlns="http://www.w3.org/2000/svg">
    <g fill="none" fill-rule="evenodd">
        <path d="M44.812 32.92c.71-.785 1.372-1.561 1.978-2.336 3.256-4.16 4.773-8.106 4.773-12.417 0-4.188-1.356-8.051-3.818-10.88-2.491-2.861-5.91-4.437-9.626-4.437-2.778 0-5.322.93-7.562 2.764-1.13.926-2.154 2.059-3.057 3.381-.902-1.322-1.927-2.455-3.057-3.38-2.24-1.835-4.784-2.765-7.562-2.765-3.716 0-7.135 1.576-9.626 4.438-2.462 2.828-3.817 6.691-3.817 10.88 0 4.31 1.516 8.255 4.773 12.417a41.3 41.3 0 0 0 1.71 2.037" stroke="#EA3E70" stroke-width="1.58" fill="#FFF" stroke-linecap="round" stroke-linejoin="round"/>
        <path d="M24.137 46.04h5.37m2.89-15.299V19.255l.225-.468c.266-.553.81-.902 1.406-.902.62 0 1.214.264 1.642.73l2.059 2.246c.357.39.95.405 1.326.035a.973.973 0 0 0 .211-.31 3.3 3.3 0 0 0-.027-2.65l-2.145-4.746a2.03 2.03 0 0 0-1.841-1.213c-.82 0-1.598.375-2.126 1.025l-1.738 2.137h0c-1.551-.638-2.883-.958-3.994-.958-1.112 0-2.689.32-4.73.958l-.776-1.665c-.425-.915-1.319-1.497-2.299-1.497-.978 0-1.867.587-2.28 1.506l-2.41 5.353c-.377.835-.3 1.815.2 2.577a.926.926 0 0 0 1.315.26.966.966 0 0 0 .265-.282l1.899-3.074a1.11 1.11 0 0 1 .755-.516l.374-.063c.228-.04.463-.003.671.103l.247.127c.347.177.567.543.567.944v9.44h0c-4.402 1.568-7.588 4.423-9.559 8.564-1.766 3.711-2.043 7.653-.833 11.827a.58.58 0 0 1-.372.717.539.539 0 0 1-.445-.057l-.837-.518c-1.315-.813-2.092-2.309-2.024-3.894l.08-1.892c.042-.967-.68-1.786-1.614-1.83a1.632 1.632 0 0 0-.075-.001c-.977 0-1.769.82-1.769 1.833v2.403c0 2.503 1.228 4.833 3.26 6.187l1.199.799a8.123 8.123 0 0 0 4.507 1.372h13.586c0-2.02-1.58-3.656-3.528-3.656h-1.576 0v-.48c0-3.643-2.85-6.597-6.366-6.597h0" stroke="#EA3E70" stroke-width="1.58" fill="#FFF" stroke-linecap="round"/>
        <path d="M44.847 50.73h-3.624l-.842-.866 1.254-2.192a1.182 1.182 0 0 0-.587-1.684 1.778 1.778 0 0 0-2.08.582l-.958 1.273a4.036 4.036 0 0 0-.812 2.427c0 .895.133 1.785.395 2.64l.29.952h5.822a7.47 7.47 0 0 0 3.909-1.104l.502-.308a4.025 4.025 0 0 0 1.9-3.064c.105-1.16-.078-2.302-.548-3.428-.769-1.842-2.43-2.967-4.985-3.375h-7.377a2.873 2.873 0 0 1-2.113-.926l-.81-.88h0l1.394-.695a5.638 5.638 0 0 0 3.063-4.24l.05-.338a7.434 7.434 0 0 0-.953-4.834l-.941-1.598a.575.575 0 0 0-.909-.108l-1.705 1.765h0-4.703l-2.035-1.854a.575.575 0 0 0-.868.112l-.924 1.417a7.37 7.37 0 0 0-1.195 4.024c0 1.426.434 2.818 1.245 3.99l.926 1.338h0l2.851 1.022v13.084h3.953v-5.631" stroke="#EA3E70" stroke-width="1.58" fill="#FFF" stroke-linecap="round"/>
        <path d="m22.327 33.373 3.88 1.385m11.044 0 3.84-1.064m0 5.155-3.84-1.235m-10.307 0-4.617 1.235" stroke="#EA3E70" stroke-width="1.58" fill="#FFF" stroke-linecap="round" stroke-linejoin="round"/>
        <path d="M32.222 35.887c.46 0 .834.387.834.864s-.374.863-.834.863c-.46 0-.833-.386-.833-.863s.373-.864.833-.864zm-2.778-2.303c.46 0 .834.386.834.863s-.373.864-.834.864c-.46 0-.833-.387-.833-.864s.373-.863.833-.863zm5.556 0c.46 0 .833.386.833.863s-.373.864-.833.864c-.46 0-.833-.387-.833-.864s.373-.863.833-.863zm-6.963-11.516c.317 0 .574.257.574.574v.003a.575.575 0 0 1-.574.574h-2.185a.575.575 0 0 1-.574-.574v-.003c0-.317.257-.574.574-.574h2.185zm-3.593-3.455c.46 0 .834.386.834.863s-.373.864-.834.864c-.46 0-.833-.387-.833-.864s.373-.863.833-.863zm5 0c.46 0 .834.386.834.863s-.373.864-.834.864c-.46 0-.833-.387-.833-.864s.373-.863.833-.863z" fill="#EA3E70"/>
        <path stroke="#EA3E70" stroke-width="1.58" fill="#FFF" stroke-linecap="round" stroke-linejoin="round" d="M18.846 53.862h21.808"/>
    </g>
</svg>
