<svg width="55" height="57" viewBox="0 0 55 57" xmlns="http://www.w3.org/2000/svg">
    <g stroke="#EA3E70" stroke-width="1.58" fill="none" fill-rule="evenodd" stroke-linecap="round" stroke-linejoin="round">
        <path d="M29.814 52.013h7.926v-7.43l7.655-5.562c.259-.188.44-.464.511-.775 1.938-8.622 2.907-13.59 2.907-14.907 0 0 0 0 0 0a1.77 1.77 0 0 0-3.47-.492l-3.116 10.784a1.32 1.32 0 0 1-.475.69l-5.872 4.407h0l3.314-2.475a2.286 2.286 0 0 0 .524-3.115 2.263 2.263 0 0 0-3.077-.646l-4.045 2.54a5.943 5.943 0 0 0-2.782 5.034v11.947h0zM25.186 52.013H17.26v-7.43L9.605 39.02a1.322 1.322 0 0 1-.511-.775c-1.938-8.622-2.906-13.59-2.906-14.907 0 0 0 0 0 0a1.77 1.77 0 0 1 3.469-.492l3.116 10.784c.08.275.246.517.475.69l5.872 4.407h0l-3.314-2.475a2.286 2.286 0 0 1-.524-3.115 2.263 2.263 0 0 1 3.077-.646l4.045 2.54a5.943 5.943 0 0 1 2.782 5.034v11.947h0zM24.204 5.537c2.148 0 4.115 7.553-.895 7.553s-1.254-7.553.895-7.553zM30.412 5.642c1.853-.624 5.803 5.988 1.482 7.442-4.32 1.454-3.335-6.819-1.482-7.442zM37.503 10.91c1.705-.031 3.376 6.552-.598 6.624-3.975.072-1.107-6.594.598-6.625zM16.644 10.958c1.602-.604 5.253 5.057 1.517 6.465-3.735 1.408-3.119-5.862-1.517-6.465zM27.3 26.729c3.317 0 8.94 5.386 8.94-.867s-4.002-10.354-8.94-10.354c-4.937 0-8.94 4.1-8.94 10.354 0 6.253 5.623.867 8.94.867z"/>
    </g>
</svg>
