<svg xmlns="http://www.w3.org/2000/svg" width="18" height="23" viewBox="0 0 18 23">
  <metadata><?xpacket begin="﻿" id="W5M0MpCehiHzreSzNTczkc9d"?>
<x:xmpmeta xmlns:x="adobe:ns:meta/" x:xmptk="Adobe XMP Core 5.6-c142 79.160924, 2017/07/13-01:06:39        ">
   <rdf:RDF xmlns:rdf="http://www.w3.org/1999/02/22-rdf-syntax-ns#">
      <rdf:Description rdf:about=""/>
   </rdf:RDF>
</x:xmpmeta>
                                                                                                    
                                                                                                    
                                                                                                    
                                                                                                    
                                                                                                    
                                                                                                    
                                                                                                    
                                                                                                    
                                                                                                    
                                                                                                    
                                                                                                    
                                                                                                    
                                                                                                    
                                                                                                    
                                                                                                    
                                                                                                    
                                                                                                    
                                                                                                    
                                                                                                    
                                                                                                    
                           
<?xpacket end="w"?></metadata>
<defs>
    <style>
      .cls-1 {
        fill: #676f74;
        fill-rule: evenodd;
      }
    </style>
  </defs>
  <path class="cls-1" d="M343,17.845a9,9,0,0,0-18,0,8.77,8.77,0,0,0,3.824,7.237v6.253a0.66,0.66,0,0,0,.309.557,0.685,0.685,0,0,0,.643.048L334,30.073l4.223,1.868a0.685,0.685,0,0,0,.643-0.048,0.661,0.661,0,0,0,.308-0.557V25.082A8.768,8.768,0,0,0,343,17.845Zm-12.824,8.01,0.026,0.011,0.186,0.083,0.016,0.007,0.2,0.083,0.047,0.018c0.068,0.027.136,0.053,0.2,0.078h0c0.069,0.025.137,0.049,0.207,0.072l0.047,0.016c0.068,0.023.137,0.046,0.207,0.067l0.019,0.006,0.189,0.055v3.361l-1.35.6V25.855ZM334,28.682a0.682,0.682,0,0,0-.277.059l-0.848.375V26.623l0.109,0.012,0.032,0,0.217,0.02,0.05,0,0.2,0.014h0.02l0.219,0.009h0.053q0.111,0,.222,0l0.222,0h0.052l0.219-.009h0.021l0.2-.014,0.05,0,0.216-.02,0.033,0,0.109-.012v2.493l-0.848-.375A0.686,0.686,0,0,0,334,28.682Zm3.825,1.628-1.35-.6V26.352c0.064-.018.127-0.036,0.19-0.056l0.017,0c0.07-.021.14-0.044,0.209-0.067l0.045-.015c0.139-.047.277-0.1,0.414-0.151l0.045-.018c0.067-.027.135-0.055,0.2-0.084l0.013-.005,0.19-.085,0.025-.011V30.31h0Zm0.309-6.137A7.713,7.713,0,0,1,334,25.365a7.871,7.871,0,0,1-.959-0.06,7.681,7.681,0,0,1-3.175-1.132,7.464,7.464,0,0,1-3.516-6.327,7.651,7.651,0,0,1,15.3,0A7.466,7.466,0,0,1,338.134,24.173Zm0.688-8.026-2.914-.416-1.3-2.6a0.68,0.68,0,0,0-1.21,0l-1.3,2.6-2.914.416a0.673,0.673,0,0,0-.545.451,0.657,0.657,0,0,0,.171.68l2.108,2.02-0.5,2.852a0.657,0.657,0,0,0,.268.649,0.685,0.685,0,0,0,.711.051L334,21.5l2.606,1.347a0.687,0.687,0,0,0,.711-0.051,0.66,0.66,0,0,0,.268-0.649l-0.5-2.852,2.109-2.02a0.657,0.657,0,0,0,.171-0.68A0.673,0.673,0,0,0,338.822,16.147Zm-2.931,2.445a0.659,0.659,0,0,0-.194.587l0.326,1.871-1.709-.884a0.686,0.686,0,0,0-.628,0l-1.71.884,0.327-1.871a0.659,0.659,0,0,0-.194-0.587l-1.383-1.325,1.911-.273a0.673,0.673,0,0,0,.508-0.363l0.855-1.7,0.855,1.7a0.673,0.673,0,0,0,.508.363l1.911,0.273Z" transform="translate(-325 -9)"/>
</svg>
