<svg width="36" height="37" viewBox="0 0 36 37" xmlns="http://www.w3.org/2000/svg">
    <defs>
        <radialGradient cx="17.52%" cy="17.481%" fx="17.52%" fy="17.481%" r="93.293%" gradientTransform="matrix(1 0 0 .99042 0 .002)" id="a">
            <stop stop-color="#9DD5F6" offset="0%"/>
            <stop stop-color="#98D3F5" offset="7.11%"/>
            <stop stop-color="#89CEF3" offset="15.75%"/>
            <stop stop-color="#70C6EF" offset="25.16%"/>
            <stop stop-color="#4EBBEA" offset="35.14%"/>
            <stop stop-color="#23ADE3" offset="45.46%"/>
            <stop stop-color="#0DA6E0" offset="50%"/>
            <stop stop-color="#2E77BC" offset="100%"/>
        </radialGradient>
    </defs>
    <g fill-rule="nonzero" fill="none">
        <path d="M35.043 0H.015v35.575h35.028v-11.74c.132-.208.206-.46.206-.773 0-.357-.074-.595-.206-.774" fill="url(#a)" transform="translate(0 .593)"/>
        <path d="m3.162 15.992-.677-1.667-.676 1.667m16.205-.67c-.132.09-.294.09-.485.09h-1.191v-.923h1.205c.177 0 .353.015.471.074.132.06.206.194.206.372-.015.179-.088.328-.206.387zm8.529.67-.676-1.667-.677 1.667h1.353zm-15.911 1.8H9.617v-3.258l-1.426 3.258h-.868l-1.426-3.258v3.258h-2l-.382-.922H1.47l-.383.922H.015l1.764-4.166h1.456l1.677 3.943v-3.943h1.602l1.295 2.827 1.176-2.827h1.647v4.166zm4.03 0h-3.295v-4.166h3.294v.863h-2.309v.759h2.25v.848h-2.25v.833h2.31v.863zm4.631-3.05c0 .67-.44 1.012-.69 1.116.22.09.396.223.484.357.133.208.162.387.162.759v.818h-1v-.52c0-.254.03-.61-.161-.819-.148-.149-.368-.178-.721-.178h-1.059v1.517h-.985v-4.166h2.265c.5 0 .867.015 1.19.208.324.164.515.447.515.908zm1.574 3.05h-1v-4.166h1v4.166zm11.661 0h-1.397l-1.867-3.124v3.124h-2l-.383-.922h-2.044l-.367.922h-1.147c-.486 0-1.089-.104-1.427-.461-.353-.357-.53-.833-.53-1.592 0-.625.104-1.176.53-1.622.324-.327.824-.49 1.5-.49h.956v.892h-.926c-.353 0-.56.06-.765.253-.162.178-.28.506-.28.937 0 .446.089.774.265.982.147.164.427.208.691.208h.441l1.383-3.273h1.47l1.662 3.943v-3.943h1.5l1.735 2.901v-2.9h1.015l-.015 4.165zM.015 18.61H1.69l.382-.922h.853l.383.922h3.308v-.714l.294.714h1.721l.294-.729v.715h8.22v-1.518h.162c.118 0 .147.015.147.208v1.324h4.25v-.357c.338.179.882.357 1.573.357h1.795l.382-.922h.853l.382.922h3.441v-.877l.53.877h2.764v-5.817H30.69v.684l-.382-.684h-2.81v.684l-.352-.684h-3.794c-.632 0-1.191.09-1.647.342v-.342h-2.618v.342c-.279-.253-.676-.342-1.117-.342H8.41l-.647 1.503-.661-1.503H4.088v.684l-.323-.684H1.19L0 15.56l.015 3.05zM35.043 21.675h-1.794c-.177 0-.294 0-.397.075a.332.332 0 0 0-.147.297c0 .164.088.268.22.313.103.03.22.044.382.044l.53.015c.544.015.897.104 1.117.343.045.03.06.074.089.104m0 1.562c-.236.357-.706.536-1.338.536h-1.897v-.893h1.897c.19 0 .323-.03.397-.104a.35.35 0 0 0 .117-.268.36.36 0 0 0-.117-.283c-.074-.06-.177-.09-.353-.09-.927-.029-2.074.03-2.074-1.294 0-.61.383-1.234 1.412-1.234h1.956v-.834h-1.824c-.544 0-.956.134-1.235.343v-.343h-2.691c-.427 0-.941.105-1.176.343v-.343h-4.81v.343c-.381-.283-1.028-.343-1.323-.343h-3.176v.343c-.309-.298-.97-.343-1.382-.343h-3.559l-.809.893-.764-.893H6.985v5.818h5.206l.838-.908.794.908h3.206v-1.369h.323c.427 0 .927-.015 1.368-.208v1.577h2.647v-1.518h.132c.162 0 .177 0 .177.164v1.339h8.043c.515 0 1.044-.134 1.339-.372v.372h2.544c.529 0 1.044-.074 1.44-.268v-1.071zm-3.941-1.666c.19.208.294.46.294.877 0 .893-.559 1.31-1.544 1.31H27.94v-.893h1.912c.19 0 .323-.03.397-.104a.35.35 0 0 0 .117-.268.417.417 0 0 0-.117-.283c-.074-.06-.177-.089-.353-.089-.927-.03-2.074.03-2.074-1.294 0-.61.383-1.235 1.412-1.235h1.97v.892h-1.808c-.177 0-.294 0-.397.075a.332.332 0 0 0-.147.297c0 .164.088.268.22.313.103.03.22.044.383.044l.53.015c.528.015.896.12 1.117.343zm-8.882-.253c-.133.074-.294.089-.486.089h-1.19v-.937h1.205c.177 0 .353 0 .47.074.133.074.207.193.207.372 0 .178-.074.327-.206.402zm.603.52c.22.09.397.224.485.357.132.209.162.387.162.76v.832h-.986v-.52c0-.253.03-.625-.161-.819-.147-.148-.368-.178-.72-.178h-1.06v1.517h-.985v-4.166h2.28c.5 0 .867.015 1.19.194.31.193.5.446.5.922a1.208 1.208 0 0 1-.705 1.101zm1.235-2.231h3.28v.863h-2.31v.758h2.25v.848h-2.25v.834h2.31v.863h-3.28v-4.166zm-6.632 1.919h-1.28V21.66h1.28c.353 0 .603.148.603.505s-.236.55-.603.55zm-2.265 1.86-1.514-1.696 1.514-1.652v3.348zm-3.897-.491H8.838v-.833H11v-.849H8.838v-.758h2.47l1.074 1.22-1.118 1.22zm7.823-1.92c0 1.16-.852 1.399-1.72 1.399h-1.22v1.399h-1.912l-1.206-1.384-1.265 1.384H7.867v-4.166h3.956l1.206 1.368 1.25-1.368h3.147c.78 0 1.661.208 1.661 1.368z" fill="#FFF"/>
    </g>
</svg>
