<svg width="61" height="40" viewBox="0 0 61 40" xmlns="http://www.w3.org/2000/svg">
    <defs>
        <radialGradient cx="49.864%" cy="50.112%" fx="49.864%" fy="50.112%" r="49.746%" gradientTransform="matrix(.9941 0 0 1 .003 0)" id="a">
            <stop stop-color="#FFEEE0" offset=".562%"/>
            <stop stop-color="#FEE9D7" offset="10.96%"/>
            <stop stop-color="#FDDBBF" offset="27.93%"/>
            <stop stop-color="#FBC597" offset="49.35%"/>
            <stop stop-color="#F8A560" offset="74.4%"/>
            <stop stop-color="#F48120" offset="100%"/>
        </radialGradient>
    </defs>
    <g fill-rule="nonzero" fill="none">
        <path fill="#FFF" d="M.228.232h60.256v39.074H.228z"/>
        <path d="M60.484 0H0v39.537h60.696V0h-.212zm-.211.447V39.09H.456V.464L60.273.447z" fill="#231F20"/>
        <path d="M60.273 21.963S43.81 33.79 13.649 39.09h46.624V21.963z" fill="#F58220"/>
        <path d="M31.804 10.038c-2.473 0-4.474 1.97-4.474 4.389 0 2.584 1.92 4.505 4.474 4.505 2.505 0 4.474-1.954 4.474-4.455-.017-2.485-1.969-4.44-4.474-4.44z" fill="url(#a)"/>
        <path d="M6.36 10.203H3.954v8.547h2.392c1.268 0 2.196-.315 2.993-.994a4.32 4.32 0 0 0 1.529-3.28c0-2.517-1.855-4.273-4.506-4.273zm1.92 6.427c-.52.48-1.187.679-2.245.679h-.439v-5.665h.44c1.057 0 1.708.199 2.244.696.57.513.911 1.308.911 2.137-.016.811-.341 1.64-.91 2.153zM11.632 10.203h1.643v8.547h-1.643zM17.277 13.483c-.993-.365-1.27-.613-1.27-1.077 0-.53.521-.944 1.22-.944.489 0 .896.199 1.319.696l.862-1.143a3.615 3.615 0 0 0-2.473-.944c-1.48 0-2.62 1.06-2.62 2.451 0 1.176.521 1.789 2.067 2.352.634.232.976.381 1.139.48.325.216.488.53.488.878 0 .696-.537 1.21-1.27 1.21-.78 0-1.415-.398-1.789-1.143l-1.057 1.043c.748 1.126 1.66 1.623 2.912 1.623 1.692 0 2.896-1.16 2.896-2.815-.017-1.359-.57-1.972-2.424-2.667zM20.205 14.477c0 2.517 1.936 4.472 4.441 4.472.7 0 1.318-.15 2.05-.497V16.48c-.65.662-1.237.927-1.985.927-1.643 0-2.814-1.225-2.814-2.948 0-1.64 1.204-2.932 2.749-2.932.78 0 1.367.282 2.05.961v-1.955c-.716-.364-1.318-.53-2.017-.53a4.452 4.452 0 0 0-4.474 4.473zM39.97 15.95l-2.245-5.747h-1.789l3.579 8.779h.878l3.628-8.779h-1.773zM44.77 18.75h4.636v-1.441h-3.01V14.99h2.896v-1.44h-2.896v-1.906h3.01v-1.44H44.77zM55.897 12.72c0-1.606-1.074-2.517-2.977-2.517h-2.44v8.564h1.643V15.32h.211l2.261 3.446h2.018l-2.652-3.611c1.253-.265 1.936-1.127 1.936-2.435zm-3.286 1.425h-.472v-2.584h.504c1.025 0 1.578.431 1.578 1.276s-.57 1.308-1.61 1.308z" fill="#001722"/>
        <path d="M57.536 10.966c0-.235-.188-.365-.534-.365h-.47v1.2h.345v-.47l.408.47h.44l-.472-.496c.189-.052.283-.157.283-.34zm-.597.156h-.062v-.313h.062c.157 0 .252.053.252.157 0 .13-.063.156-.252.156z" fill="#231F20"/>
        <path d="M56.808 10.32a.659.659 0 0 0-.65.662c0 .364.292.662.65.662.358 0 .634-.298.634-.662 0-.365-.276-.663-.634-.663zm0 1.208a.519.519 0 0 1-.52-.53c0-.298.227-.546.52-.546.276 0 .504.248.504.546 0 .282-.228.53-.504.53zM18.643 21.003l2.196 2.335v-2.22h.31v2.999l-2.197-2.336v2.203h-.309z" fill="#231F20"/>
        <path d="M18.61 21.003v3.014h.375v-2.17c.097.1 2.196 2.336 2.196 2.336v-3.097h-.374v2.17c-.098-.1-2.196-2.336-2.196-2.336v.083zm.066.066c.097.1 2.196 2.335 2.196 2.335v-2.269h.26v2.882c-.097-.1-2.196-2.335-2.196-2.335v2.252h-.26V21.07zM22.661 21.119h1.448v.298H22.97v.845h1.107v.298H22.97v1.126h1.14v.298H22.66z" fill="#231F20"/>
        <path d="M24.125 21.102h-1.48v2.915h1.513v-.348h-1.139v-1.06h1.106v-.347H23.02v-.796h1.139v-.364h-.033zm-.032.05v.232h-1.139v.91h1.106v.233h-1.106v1.176h1.139v.231h-1.4v-2.799c.05.017 1.335.017 1.4.017zM26.338 23.984h-.31v-2.567h-.682v-.298h1.675v.298h-.683z" fill="#231F20"/>
        <path d="M27.021 21.102h-1.708v.364h.683v2.568h.374v-2.568h.684v-.364h-.033zm-.032.05v.232h-.684v2.567h-.26v-2.567h-.683v-.232h1.627zM29.12 23.272l.91-2.302.912 2.302.732-2.137h.341l-1.073 3.015-.911-2.303-.911 2.303-1.074-3.015h.342z" fill="#231F20"/>
        <path d="M29.998 20.97s-.83 2.087-.878 2.22c-.05-.133-.716-2.088-.716-2.088h-.407l1.123 3.13s.862-2.17.91-2.302c.05.133.912 2.303.912 2.303l1.122-3.13h-.406s-.667 1.954-.716 2.086c-.05-.132-.911-2.286-.911-2.286l-.033.067zm-.862 2.318s.83-2.103.878-2.22c.05.133.911 2.303.911 2.303s.749-2.17.765-2.203h.277c-.033.083-.993 2.766-1.042 2.899-.048-.133-.91-2.302-.91-2.302s-.863 2.17-.912 2.302c-.048-.133-1.008-2.816-1.04-2.899h.276c.016.033.764 2.203.764 2.203l.033-.083zM36.066 22.56c0 .828-.667 1.474-1.464 1.474a1.468 1.468 0 0 1-1.464-1.474c0-.812.667-1.491 1.464-1.491.797 0 1.464.662 1.464 1.49zm-2.619 0c0 .646.52 1.176 1.155 1.176a1.17 1.17 0 0 0 1.155-1.176c0-.646-.504-1.193-1.155-1.193-.65 0-1.155.547-1.155 1.193z" fill="#231F20"/>
        <path d="M33.105 22.56c0 .828.667 1.507 1.497 1.507.83 0 1.497-.68 1.497-1.507 0-.829-.667-1.508-1.497-1.508-.83 0-1.497.68-1.497 1.508zm.05 0c0-.795.65-1.458 1.43-1.458.798 0 1.432.646 1.432 1.458 0 .795-.65 1.44-1.431 1.44s-1.432-.645-1.432-1.44z" fill="#231F20"/>
        <path d="M33.414 22.56c0 .679.537 1.209 1.188 1.209.65 0 1.171-.547 1.171-1.21 0-.662-.52-1.208-1.171-1.208-.65 0-1.188.53-1.188 1.209zm.066 0c0-.63.504-1.16 1.122-1.16.618 0 1.123.514 1.123 1.16 0 .646-.505 1.16-1.123 1.16s-1.122-.53-1.122-1.16zM37.725 23.984h-.309V21.12h.407c.537 0 1.025.149 1.025.795 0 .447-.277.745-.7.795L39.043 24h-.39l-.846-1.26h-.082v1.243zm0-1.54h.098c.358 0 .716-.067.716-.514 0-.464-.342-.513-.716-.513h-.098v1.027z" fill="#231F20"/>
        <path d="M37.416 21.102h-.032v2.915h.374v-1.259h.049c0 .017.83 1.243.83 1.243l.406.016h.065l-.91-1.292c.422-.066.683-.364.683-.811 0-.547-.342-.812-1.058-.812h-.407zm.407.05c.683 0 .992.248.992.762 0 .43-.26.728-.683.762h-.049s.83 1.192.895 1.275h-.325c0-.017-.83-1.242-.83-1.242l-.098-.017h-.032v1.259h-.26v-2.8h.39z" fill="#231F20"/>
        <path d="M37.737 21.384h-.044v1.2h.177c.464 0 1.016-.073 1.016-.6 0-.564-.53-.6-1.016-.6h-.133zm.133.072c.486 0 .928.037.928.527 0 .473-.464.528-.928.528h-.089v-1.055h.089zM41.874 21.119h.423l-1.318 1.341 1.367 1.524h-.44l-1.155-1.308-.081.082v1.243h-.31v-2.866h.31v1.226z" fill="#231F20"/>
        <path d="M42.297 21.102h-.44l-1.154 1.176v-1.176h-.375v2.915h.375v-1.259s.032-.016.048-.033c.033.05 1.14 1.292 1.14 1.292l.455.017h.065s-1.35-1.524-1.4-1.557l1.35-1.358-.064-.017zm-.065.05-1.285 1.308s1.252 1.408 1.334 1.508h-.358c0-.017-1.123-1.309-1.123-1.309l-.016-.017-.098.1-.016 1.226h-.26v-2.8h.26v1.276l1.236-1.276c0-.016.228-.016.326-.016z" fill="#231F20"/>
    </g>
</svg>
