<svg width="59" height="37" viewBox="0 0 59 37" xmlns="http://www.w3.org/2000/svg">
    <g fill="none" fill-rule="evenodd">
        <path d="M29.142 31.465a17.135 17.135 0 0 0 11.683 4.598c9.635 0 17.444-7.945 17.444-17.706 0-9.79-7.794-17.735-17.444-17.735-4.494 0-8.619 1.741-11.683 4.598a17.874 17.874 0 0 0-5.746 13.137 17.705 17.705 0 0 0 5.746 13.108z" fill="#FCB131"/>
        <path d="M34.77 16.468c-.06-.64-.177-1.25-.295-1.89H23.808c.118-.64.295-1.25.487-1.86h9.664a20.78 20.78 0 0 0-.722-1.889h-8.191c.295-.64.633-1.28 1.002-1.89h6.173c-.398-.64-.84-1.28-1.326-1.86h-3.521a17.94 17.94 0 0 1 1.782-1.889C26.048 2.363 21.952.593 17.444.593 7.838.593 0 8.538 0 18.328c0 9.76 7.838 17.705 17.444 17.705 4.523 0 8.619-1.74 11.712-4.597.634-.58 1.209-1.19 1.754-1.86h-3.521c-.487-.61-.9-1.22-1.326-1.89h6.143c.398-.61.722-1.22 1.031-1.89h-8.191c-.265-.61-.545-1.22-.751-1.859h9.664c.207-.61.369-1.25.516-1.89.118-.61.236-1.25.295-1.89a19.18 19.18 0 0 0 0-3.69z" fill="#ED1C2E"/>
        <path d="M55.956 22.464c0-.327.235-.58.545-.58a.56.56 0 0 1 .574.58c0 .312-.235.58-.574.58-.31 0-.545-.282-.545-.58zm.53.417c.236 0 .457-.179.457-.432s-.206-.431-.457-.431a.44.44 0 0 0-.427.431.44.44 0 0 0 .427.432zm-.059-.179h-.118v-.491h.324c.06.03.06.09.06.149 0 .03-.03.09-.09.119l.119.208h-.148l-.058-.178h-.089v.193-.268h.06c.029 0 .058 0 .058-.03.03 0 .03-.03.03-.06 0 0 0-.029-.03-.029 0-.03-.03 0-.059 0h-.059v.387z" fill="#FFF"/>
        <path d="M23.204 23.46c-.574.15-1.001.239-1.414.239-.899 0-1.444-.58-1.444-1.607 0-.208.03-.431.06-.67l.117-.699.088-.58.81-4.984h1.813l-.206 1.1h1.149l-.265 1.83h-1.15l-.486 2.976c-.03.15-.03.238-.03.313 0 .402.178.55.634.55.207 0 .398-.03.575-.06l-.25 1.593zM29.053 23.401a7.189 7.189 0 0 1-1.93.268c-2.048 0-3.226-1.1-3.226-3.258 0-2.53 1.385-4.345 3.315-4.345 1.532 0 2.534 1.027 2.534 2.649 0 .55-.06 1.056-.206 1.8h-3.772c-.03.119-.03.178-.03.238 0 .848.575 1.28 1.65 1.28.693 0 1.297-.15 1.96-.462l-.295 1.83zm-1.12-4.344V18.7c0-.61-.323-.938-.898-.938-.604 0-1.031.462-1.208 1.31h2.107v-.015zM8.751 23.55h-1.87l1.09-6.904-2.446 6.904H4.228l-.147-6.874-1.15 6.874h-1.84l1.487-8.972h2.74l.06 5.535 1.826-5.535h3.02zM13.304 20.307c-.177-.03-.236-.03-.368-.03-1.09 0-1.621.431-1.621 1.1 0 .462.265.76.692.76.899-.015 1.267-.774 1.297-1.83zm1.503 3.243h-1.621l.03-.759c-.428.58-1.002.878-1.99.878-.898 0-1.694-.818-1.694-2.008 0-.328.06-.64.148-.938.294-1.13 1.414-1.83 3.138-1.86.206 0 .545 0 .84.03.058-.238.058-.327.058-.49 0-.492-.397-.64-1.267-.64-.545 0-1.149.089-1.561.237l-.266.06-.117.03.265-1.637c.869-.268 1.503-.402 2.195-.402 1.62 0 2.505.76 2.505 2.158 0 .372.029.64-.089 1.428l-.427 2.619-.059.46-.03.373-.029.238-.03.223zM38.144 16.32c.545 0 1.03.148 1.68.49l.323-1.949c-.177-.09-.235-.09-.486-.179l-.751-.208a3.725 3.725 0 0 0-.87-.09c-.928 0-1.473.03-2.047.373a6.19 6.19 0 0 0-1.12.967l-.236-.06-1.93 1.37.089-.76h-1.99l-1.178 7.306h1.9l.693-3.928s.265-.55.398-.73c.368-.46.663-.46 1.06-.46h.148c-.06.431-.089.877-.089 1.398 0 2.366 1.326 3.869 3.374 3.869.516 0 .958-.06 1.65-.238l.324-2.069c-.604.328-1.149.491-1.59.491-1.12 0-1.783-.848-1.783-2.187.03-2.008 1.016-3.407 2.43-3.407zM54.144 14.578l-.428 2.56c-.456-.7-1.002-1.027-1.723-1.027-1.002 0-1.93.58-2.505 1.666v-.03l-1.208-.729.118-.758h-2.019l-1.149 7.305h1.871l.634-3.928s.486-.55.604-.729c.294-.372.604-.431.84-.461-.207.61-.325 1.339-.325 2.157 0 1.83.929 3.035 2.328 3.035.693 0 1.238-.238 1.753-.818l-.088.73h1.783l1.444-8.973h-1.93zm-2.328 7.246c-.634 0-.958-.49-.958-1.428 0-1.428.604-2.47 1.473-2.47.663 0 1.002.52 1.002 1.428 0 1.458-.604 2.47-1.517 2.47zM43.123 20.307c-.177-.03-.235-.03-.368-.03-1.09 0-1.62.431-1.62 1.1 0 .462.265.76.692.76.899-.015 1.267-.774 1.296-1.83zm1.503 3.243h-1.665l.06-.759c-.428.58-1.003.878-1.99.878-.928 0-1.753-.788-1.753-2.008 0-1.741 1.296-2.798 3.344-2.798.207 0 .545 0 .81.03.06-.238.09-.327.09-.49 0-.492-.399-.64-1.297-.64-.516 0-1.15.089-1.562.237l-.236.06-.118.03.265-1.637c.87-.268 1.503-.402 2.196-.402 1.62 0 2.475.76 2.475 2.158 0 .372.059.64-.089 1.428l-.397 2.619-.06.46-.058.373-.03.238.015.223zM18.755 17.807c.368 0 .87.03 1.414.119l.266-1.696c-.546-.06-1.267-.149-1.695-.149-2.107 0-2.799 1.16-2.799 2.5 0 .878.398 1.517 1.414 2.008.752.357.87.432.87.76 0 .46-.398.728-1.12.728-.575 0-1.12-.09-1.724-.312l-.206 1.666.03.03.368.06c.118.03.265.059.486.089.457.03.84.06 1.09.06 2.107 0 2.976-.82 2.976-2.44 0-1.013-.486-1.608-1.414-2.04-.81-.371-.899-.43-.899-.758 0-.327.368-.625.943-.625z" fill="#003473"/>
        <path d="m40.678 14.28-.325 1.95c-.662-.327-1.149-.491-1.694-.491-1.414 0-2.416 1.398-2.416 3.377 0 1.37.663 2.187 1.783 2.187.456 0 1.002-.148 1.59-.46l-.323 2.038c-.693.178-1.15.267-1.65.267-2.048 0-3.315-1.487-3.315-3.898 0-3.199 1.753-5.445 4.243-5.445.324 0 .633.03.87.089l.75.178c.25.12.31.15.487.209zM34.593 15.62h-.177c-.633 0-1.002.312-1.562 1.19l.177-1.13h-1.724l-1.178 7.305h1.9c.693-4.479.87-5.238 1.783-5.238h.118a7.864 7.864 0 0 1 .722-2.097l-.06-.03zM23.69 22.88a3.946 3.946 0 0 1-1.355.239c-.958 0-1.503-.55-1.503-1.607 0-.179.03-.432.06-.64l.117-.73.089-.58.81-4.984h1.871l-.206 1.101h.957l-.235 1.8h-.958l-.516 3.036c-.03.119-.03.208-.03.312 0 .372.178.521.634.521.207 0 .398 0 .516-.06l-.25 1.593zM16.427 17.986c0 .907.427 1.547 1.415 2.038.78.372.898.49.898.788 0 .462-.324.67-1.09.67-.575 0-1.09-.09-1.68-.268l-.265 1.667.089.03.324.059c.118.03.265.06.515.06.428.059.781.059 1.032.059 1.989 0 2.917-.759 2.917-2.44 0-1.012-.398-1.577-1.326-2.039-.81-.372-.899-.46-.899-.788 0-.402.324-.58.928-.58.369 0 .87.03 1.356.089l.265-1.667a11.119 11.119 0 0 0-1.65-.148c-2.107.015-2.858 1.13-2.829 2.47zM55.101 22.97h-1.783l.089-.7c-.516.551-1.06.79-1.753.79-1.385 0-2.284-1.191-2.284-3.006 0-2.44 1.414-4.509 3.065-4.509.75 0 1.296.328 1.812 1.012l.427-2.559h1.871l-1.444 8.972zm-2.77-1.696c.87 0 1.474-1.027 1.474-2.47 0-.937-.324-1.428-1.002-1.428-.84 0-1.473 1.011-1.473 2.44.014.967.338 1.458 1.001 1.458zM29.466 22.821a6.279 6.279 0 0 1-1.96.313c-2.106 0-3.197-1.131-3.197-3.289 0-2.5 1.385-4.344 3.286-4.344 1.561 0 2.563 1.026 2.563 2.648 0 .55-.059 1.057-.235 1.83H26.18c-.029.09-.029.149-.029.209 0 .848.575 1.28 1.65 1.28.692 0 1.297-.12 1.96-.462l-.295 1.815zm-1.046-4.344v-.372c0-.61-.324-.938-.899-.938-.604 0-1.031.461-1.208 1.31h2.107zM9.223 22.97H7.366l1.076-6.904-2.431 6.904H4.715l-.163-6.83-1.134 6.83H1.665l1.473-8.972h2.726l.088 5.58 1.798-5.58h2.96zM13.893 19.726c-.177 0-.265-.03-.427-.03-1.06 0-1.591.402-1.591 1.131 0 .462.235.73.663.73.78-.015 1.326-.745 1.355-1.83zm1.385 3.244h-1.562l.03-.759c-.486.61-1.12.878-1.99.878-1.03 0-1.723-.789-1.723-1.979 0-1.8 1.208-2.827 3.315-2.827.206 0 .486.03.78.06.06-.238.06-.328.06-.462 0-.49-.324-.67-1.208-.67-.545 0-1.15.06-1.562.18l-.265.089-.177.03.265-1.637c.928-.268 1.562-.372 2.254-.372 1.621 0 2.505.729 2.505 2.127 0 .372-.03.64-.147 1.459l-.428 2.588-.059.462-.029.372-.03.267-.029.194zM43.727 19.726c-.206 0-.294-.03-.427-.03-1.09 0-1.62.402-1.62 1.131 0 .462.265.73.692.73.751-.015 1.326-.745 1.355-1.83zm1.37 3.244h-1.561l.03-.759c-.487.61-1.12.878-1.99.878-1.031 0-1.723-.789-1.723-1.979 0-1.8 1.208-2.827 3.314-2.827.207 0 .487.03.752.06.059-.238.088-.328.088-.462 0-.49-.324-.67-1.208-.67-.545 0-1.178.06-1.591.18l-.236.089-.177.03.266-1.637c.928-.268 1.561-.372 2.254-.372 1.62 0 2.475.729 2.475 2.127 0 .372 0 .64-.147 1.459l-.398 2.588-.06.462-.058.372-.03.267v.194zM50.166 15.62h-.177c-.634 0-1.002.312-1.562 1.19l.177-1.13H46.88l-1.149 7.305h1.871c.693-4.479.87-5.238 1.783-5.238h.118a7.864 7.864 0 0 1 .722-2.097l-.06-.03z" fill="#FFF"/>
    </g>
</svg>
