<svg width="89" height="22" viewBox="0 0 89 22" xmlns="http://www.w3.org/2000/svg">
    <defs>
        <linearGradient x1="64.696%" y1="67.453%" x2="44.441%" y2="43.311%" id="a">
            <stop stop-color="#CE5DCB" offset="0%"/>
            <stop stop-color="#C558CC" offset="20.95%"/>
            <stop stop-color="#AC4ACF" offset="55.25%"/>
            <stop stop-color="#8534D4" offset="98.45%"/>
            <stop stop-color="#8333D4" offset="100%"/>
        </linearGradient>
        <linearGradient x1="8.306%" y1="50.049%" x2="99.909%" y2="50.049%" id="b">
            <stop stop-color="#FF5667" offset="0%"/>
            <stop stop-color="#FF5667" offset="2.37%"/>
            <stop stop-color="#FC8B82" offset="65.92%"/>
            <stop stop-color="#FBA28E" offset="100%"/>
        </linearGradient>
        <linearGradient x1="4.307%" y1="49.953%" x2="95.72%" y2="49.953%" id="c">
            <stop stop-color="#00B874" offset="0%"/>
            <stop stop-color="#29D3A2" offset="51.26%"/>
            <stop stop-color="#53DFB6" offset="68.17%"/>
            <stop stop-color="#9FF4D9" offset="100%"/>
        </linearGradient>
        <linearGradient x1="4.337%" y1="49.978%" x2="95.75%" y2="49.978%" id="d">
            <stop stop-color="#FCD77E" offset="0%"/>
            <stop stop-color="#FEA500" offset="52.41%"/>
            <stop stop-color="#FF5B00" offset="100%"/>
        </linearGradient>
    </defs>
    <g fill-rule="nonzero" fill="none">
        <path fill="url(#a)" d="M16.969 12.415 9.195 3.141 0 10.845l7.79 9.274z" transform="translate(.573 .197)"/>
        <path fill="url(#b)" d="M10.618 5.489h8.071v8.547h-8.071z" transform="translate(.573 .197)"/>
        <path fill="url(#c)" d="M2.547 0h11.13v14.234H2.547z" transform="translate(.573 .197)"/>
        <path fill="url(#d)" d="M9.477 6.927h11.13v14.234H9.477z" transform="translate(.573 .197)"/>
        <path d="M47.675 10.81a5.16 5.16 0 0 0-.661-1.438 5.658 5.658 0 0 0-1.968-1.835 5.46 5.46 0 0 0-4.168-.447 5.466 5.466 0 0 0-3.275 2.629 5.42 5.42 0 0 0-.446 4.15v.016c.1.314.248.71.248.71.463 1.092 1.24 1.918 2.382 2.547.81.446 1.703.677 2.613.677.512 0 1.042-.066 1.554-.231a5.405 5.405 0 0 0 2.713-1.802l.05-.05c.181-.231.347-.462.479-.727a.93.93 0 0 0-.364-1.273.877.877 0 0 0-.463-.116.913.913 0 0 0-.81.48c-.232.413-.53.777-.91 1.058a.36.36 0 0 0-.083.066 3.675 3.675 0 0 1-1.14.562 3.61 3.61 0 0 1-2.746-.298 3.286 3.286 0 0 1-1.34-1.306l7.707-2.264c.48-.1.76-.612.628-1.108m-5.259-2.083c.596 0 1.191.149 1.72.446.53.281.976.711 1.307 1.207a.361.361 0 0 0 .05.083l-6.715 1.967a3.531 3.531 0 0 1 .446-1.818 3.573 3.573 0 0 1 2.15-1.736c.364-.1.711-.149 1.042-.149M57.566 16.05h-5.094l5.706-8.381a.55.55 0 0 0 .033-.529.523.523 0 0 0-.463-.281h-7.261a.882.882 0 0 0-.877.876c0 .48.397.876.877.876h4.862l-5.705 8.382a.55.55 0 0 0-.034.529.51.51 0 0 0 .464.264h7.492c.48 0 .876-.396.876-.876a.879.879 0 0 0-.876-.86M68.861 16.05h-5.093l5.705-8.381a.55.55 0 0 0 .033-.529.51.51 0 0 0-.463-.265H61.8a.882.882 0 0 0-.876.877c0 .48.397.876.876.876h4.863l-5.706 8.381a.55.55 0 0 0-.033.53c.1.165.265.264.463.264h7.492c.48 0 .877-.397.877-.876a.908.908 0 0 0-.894-.876M73.906 2.147a.882.882 0 0 0-.877.877V16.96c0 .48.397.876.877.876s.876-.397.876-.876V3.024a.882.882 0 0 0-.876-.877M88.228 10.81a5.632 5.632 0 0 0-.645-1.438 5.658 5.658 0 0 0-1.968-1.835 5.468 5.468 0 0 0-4.168-.447A5.388 5.388 0 0 0 78.19 9.72a5.5 5.5 0 0 0-.463 4.15v.016c.1.314.248.71.248.71.463 1.092 1.24 1.918 2.382 2.547.81.446 1.703.677 2.613.677.513 0 1.042-.066 1.555-.231a5.405 5.405 0 0 0 2.712-1.802l.05-.066c.181-.232.347-.48.48-.727a.93.93 0 0 0-.365-1.273.877.877 0 0 0-.463-.116.932.932 0 0 0-.81.48c-.232.413-.53.776-.91 1.057a.36.36 0 0 0-.083.066 3.675 3.675 0 0 1-1.14.563 3.61 3.61 0 0 1-2.746-.298 3.286 3.286 0 0 1-1.34-1.306l7.707-2.265c.463-.083.745-.595.612-1.091m-5.26-2.083c.596 0 1.192.149 1.72.446.53.281.977.711 1.307 1.207.017.033.034.066.05.083L79.33 12.43a3.531 3.531 0 0 1 .447-1.818 3.573 3.573 0 0 1 2.15-1.736c.364-.1.711-.149 1.042-.149M34.23 12.943c-.265-.38-.629-.695-1.109-.943-.777-.396-1.802-.578-2.761-.727l-.15-.017c-.677-.099-1.389-.215-1.835-.446-.347-.182-.463-.364-.463-.744 0-.727.81-1.29 1.869-1.29 1.273 0 1.984.364 2.778.86.149.1.314.133.496.133.331 0 .629-.166.81-.447a.97.97 0 0 0 .116-.71.896.896 0 0 0-.43-.58c-.446-.264-.926-.545-1.521-.76-.678-.248-1.406-.363-2.216-.363-.976 0-1.902.297-2.58.843-.761.595-1.175 1.421-1.175 2.33 0 1.092.513 1.935 1.506 2.43.727.364 1.57.497 2.398.629l.148.017c2.117.33 2.73.628 2.73 1.339 0 .86-.877 1.438-2.217 1.454h-.05c-1.438 0-2.249-.562-2.695-.86-.066-.049-.133-.098-.199-.132a.875.875 0 0 0-.496-.148.91.91 0 0 0-.794.446.919.919 0 0 0 .298 1.29c.017.016.066.033.1.066l.016.016c.512.347 1.72 1.174 3.754 1.174h.066c1.174-.017 2.167-.33 2.911-.91.76-.611 1.174-1.47 1.174-2.413-.033-.595-.182-1.091-.48-1.537" fill="#382757"/>
    </g>
</svg>
