<svg width="73" height="24" viewBox="0 0 73 24" xmlns="http://www.w3.org/2000/svg">
    <g fill-rule="nonzero" fill="none">
        <path fill="#00589F" d="M25.514 22.747 29.175.979h5.868l-3.677 21.768zM52.63 1.515c-1.161-.446-2.985-.922-5.25-.922-5.793 0-9.867 2.945-9.91 7.186-.03 3.124 2.91 4.865 5.131 5.907 2.28 1.07 3.044 1.74 3.044 2.693-.014 1.458-1.823 2.127-3.514 2.127-2.353 0-3.588-.327-5.515-1.145l-.75-.343-.823 4.866c1.367.61 3.897 1.13 6.529 1.16 6.161 0 10.161-2.916 10.205-7.439.015-2.47-1.544-4.36-4.926-5.922-2.044-1.011-3.309-1.681-3.294-2.693 0-.907 1.059-1.874 3.353-1.874 1.912-.03 3.309.386 4.382.833l.53.253.808-4.687M67.674 1.01h-4.53c-1.396 0-2.455.386-3.073 1.8l-8.705 19.952h6.161s1-2.679 1.235-3.274c.677 0 6.647.015 7.515.015.176.759.72 3.259.72 3.259h5.441L67.674 1.009m-7.235 14.016c.485-1.25 2.338-6.086 2.338-6.086-.03.06.485-1.264.78-2.083l.396 1.875 1.353 6.279H60.44v.015zM20.587.994l-5.735 14.849-.617-3.02C13.16 9.34 9.838 5.577 6.117 3.687l5.25 19.03 6.206-.015L26.808.979l-6.22.015"/>
        <path d="M9.529.98H.074L0 1.425c7.353 1.8 12.22 6.16 14.235 11.382l-2.059-9.999c-.338-1.368-1.382-1.77-2.647-1.83" fill="#F9A51A"/>
    </g>
</svg>
