<svg width="220" height="155" viewBox="0 0 178 144" xmlns="http://www.w3.org/2000/svg">
    <g transform="scale(-1 1) rotate(22 -73.286 -361.767)" fill="none" fill-rule="evenodd">
        <g stroke="#979797" stroke-dasharray="3.85" stroke-width=".77">
            <path d="M10.384 66.475c3.921-13.827 8.288-22.748 22.778-33.486 14.49-10.737 38.726-11.362 55.024-4.514 6.238 2.621 23 26.423 23.79 38 1.02 14.975-1.197 28.495-18.762 24.86C80.33 88.67 78.658 62.386 80.33 52.649c.86-5.003 3.329-9.63 5.68-14.125 7.928-15.155 34.246-34.868 57.312-23.156"/>
            <path d="M138.324 0c12.286 22.338 17.058 18.647-10.007 21.955"/>
        </g>
        <rect stroke="#FFF" stroke-width="2" fill="#EA3E70" x="-1" y="63.592" width="15" height="15" rx="7.5"/>
    </g>
</svg>
