<svg width="200" height="159" viewBox="0 0 200 159" xmlns="http://www.w3.org/2000/svg">
    <g transform="rotate(-11 182.237 2.961)" fill="none" fill-rule="evenodd">
        <g stroke="#979797" stroke-dasharray="5">
            <path d="M11.186 70.966c7.541-17.073 14.77-27.757 35.346-38.947 20.576-11.19 51.857-7.613 71.58 4.14 7.548 4.498 24.803 38.138 23.726 53.168-1.394 19.445-6.69 36.431-28.622 28.582-16.087-5.757-13.487-39.862-9.577-52.083 2.01-6.279 6.022-11.782 9.86-17.14 12.933-18.056 30.426-22.872 51.303-21.706"/>
            <path d="M148.311 17.87c32.1 8.116 32.82.314 11.99 28.95"/>
        </g>
        <rect stroke="#FFF" stroke-width="2" fill="#EA3E70" x="-1" y="70.603" width="15" height="15" rx="7.5"/>
    </g>
</svg>
