<svg width="20" height="20" viewBox="0 0 20 20" xmlns="http://www.w3.org/2000/svg">
    <g stroke="#303030" stroke-width="1.5" fill="none" fill-rule="evenodd">
        <path d="M15.365 1.685a2.168 2.168 0 0 0-1.6-.685c-.462 0-.885.144-1.257.427a2.548 2.548 0 0 0-.508.522 2.547 2.547 0 0 0-.508-.522A2.034 2.034 0 0 0 10.235 1c-.618 0-1.186.243-1.6.685C8.225 2.122 8 2.718 8 3.365c0 .665.252 1.274.793 1.917.485.574 1.18 1.158 1.987 1.833.275.23.587.492.91.77a.474.474 0 0 0 .62 0c.323-.278.635-.54.91-.77.806-.676 1.502-1.259 1.987-1.834.54-.642.793-1.251.793-1.916 0-.647-.225-1.243-.635-1.68z"/>
        <path d="m6.353 14.167 3.998-.59A1.93 1.93 0 0 0 12 11.666c0-.92-.746-1.667-1.666-1.667H3.682a3 3 0 0 0-3 3v3.505a3 3 0 0 0 3 3h4.705a8 8 0 0 0 6.588-3.462l3.797-5.512a1.473 1.473 0 0 0-.22-1.923 1.454 1.454 0 0 0-1.924-.032l-4.986 4.257h0" stroke-linecap="round" stroke-linejoin="round"/>
    </g>
</svg>
