<svg width="20" height="20" viewBox="0 0 20 20" xmlns="http://www.w3.org/2000/svg">
    <path d="M16.73 4.37A4.336 4.336 0 0 0 13.53 3c-.923 0-1.769.287-2.514.853A5.097 5.097 0 0 0 10 4.897c-.3-.408-.64-.758-1.016-1.044A4.068 4.068 0 0 0 6.47 3a4.336 4.336 0 0 0-3.2 1.37C2.45 5.243 2 6.436 2 7.73c0 1.33.504 2.548 1.587 3.833.968 1.15 2.36 2.316 3.972 3.667.55.461 1.175.984 1.822 1.541a.947.947 0 0 0 1.237 0c.648-.557 1.272-1.08 1.823-1.541 1.612-1.351 3.004-2.518 3.972-3.667C17.496 10.278 18 9.06 18 7.729c0-1.293-.45-2.486-1.27-3.359z" stroke="#303030" stroke-width="1.5" fill="none" fill-rule="evenodd"/>
</svg>
