<svg width="207" height="39" viewBox="0 0 207 39" xmlns="http://www.w3.org/2000/svg">
    <g fill="#FFF" fill-rule="nonzero">
        <path d="M11.39 34.154 0 1.405h5.902l8.719 26.21 8.772-26.21h5.857l-11.39 32.75zM36.308 6.296c-.64.64-1.399.955-2.274.955-.876 0-1.634-.316-2.275-.955-.64-.64-.965-1.396-.965-2.27 0-.874.316-1.63.938-2.27.623-.64 1.39-.954 2.302-.954.902 0 1.67.324 2.301.954.623.64.939 1.396.939 2.27-.01.874-.325 1.63-.966 2.27zm-4.81 27.858v-23.39h5.063v23.39h-5.063zM55.505 15.627h-5.813v11.231c0 .964.217 1.667.66 2.081.432.423 1.082.658 1.949.703.857.045 1.931.036 3.213-.027v4.54c-3.872.467-6.661.134-8.349-1.01-1.687-1.135-2.527-3.233-2.527-6.296V15.627h-4.314v-4.864h4.314V5.71l5.063-1.495v6.548h5.813v4.864h-.01zM77.724 10.763h5.063v23.391h-5.063v-3.369c-1.904 2.649-4.639 3.973-8.203 3.973-3.222 0-5.975-1.19-8.25-3.576-2.283-2.387-3.42-5.296-3.42-8.728 0-3.459 1.137-6.377 3.42-8.746 2.284-2.368 5.037-3.557 8.25-3.557 3.564 0 6.3 1.306 8.203 3.927v-3.315zm-12.707 17.05c1.408 1.423 3.177 2.126 5.298 2.126 2.12 0 3.89-.712 5.297-2.126 1.408-1.423 2.112-3.206 2.112-5.359s-.704-3.936-2.112-5.359c-1.407-1.423-3.167-2.126-5.297-2.126s-3.89.712-5.298 2.126c-1.408 1.423-2.112 3.206-2.112 5.36.01 2.152.713 3.944 2.112 5.358zM88.69 34.154V0h5.063v34.154z"/>
        <g>
            <path d="M108.493.594c3.13 0 5.74 1.05 7.847 3.159 2.099 2.109 3.148 4.725 3.148 7.847 0 3.094-1.05 5.7-3.148 7.82-2.098 2.117-4.717 3.177-7.847 3.177h-6.78V34.08h-5.446V.594h12.226zm0 16.845c1.615 0 2.938-.553 3.978-1.649s1.56-2.496 1.56-4.19c0-1.695-.52-3.086-1.56-4.19-1.04-1.097-2.372-1.65-3.978-1.65h-6.78v11.67h6.78v.009zM141.012 10.304h5.119v23.919h-5.119v-3.445c-1.925 2.708-4.69 4.062-8.294 4.062-3.257 0-6.04-1.216-8.34-3.656-2.308-2.441-3.457-5.416-3.457-8.925 0-3.537 1.15-6.52 3.458-8.943 2.308-2.422 5.091-3.638 8.34-3.638 3.603 0 6.368 1.336 8.293 4.016v-3.39zm-12.847 17.444c1.424 1.455 3.212 2.174 5.356 2.174 2.154 0 3.933-.728 5.356-2.174 1.424-1.455 2.135-3.279 2.135-5.48 0-2.201-.711-4.025-2.135-5.48-1.423-1.455-3.202-2.173-5.356-2.173-2.153 0-3.932.727-5.356 2.173-1.423 1.455-2.135 3.279-2.135 5.48 0 2.201.712 4.025 2.135 5.48zM194.243 29.447h11.515v4.881h-18.486v-3.444l11.096-15.593h-10.621V10.41h17.528v3.444zM174.727 38c-3.66 0-6.086-4.494-7.5-4.568-1.415-.074-2.911 2.44-5.767 3.868-1.414.718-4.389.332-6.46-1.833-5.904-6.861 2.974-17.655 5.146-12.24.392.986 1.752 1.022 2.126.028 3.55-9.459 7.135-6.66 9.48.322.347 1.04 1.807 1.078 2.199.046 1.287-3.362 3.741-3.187 6.296 2.699 1.834 4.89.128 11.678-5.52 11.678zM183.23 10.195c.256.083.493.249.657.479.438.598.958 2.035-.237 5.065-1.724 4.394-3.166 4.817-5.036 4.007-1.871-.81-3.203-2.542-2.482-4.163.702-1.575 3.75-6.475 7.098-5.388zM174.133 2.32c.74-.027 1.424.36 1.844 1.013.638.995 1.36 2.837.565 5.48-1.25 4.2-2.901 5.784-5.292 4.587-2.39-1.197-2.929-3.233-2.472-4.973.456-1.741 1.259-3.638 3.43-5.397a3.342 3.342 0 0 1 1.925-.71zM159.927 2.597c.557-.525 1.305-.682 2.016-.516 1.031.24 2.555 1.031 3.386 3.583 1.332 4.089.346 7.165-1.123 7.708-1.469.544-4.872 1.308-5.556-3.048-.758-4.79.365-6.852 1.277-7.727zM153.814 9.338s4.124 3.03 3.987 6.871c-.146 3.84-2.619 4.07-3.22 4.034-.612-.037-3.98.184-4.59-5.185-.612-5.37 1.04-7.958 3.823-5.72z"/>
        </g>
    </g>
</svg>
