<svg width="24" height="24" viewBox="0 0 24 24" xmlns="http://www.w3.org/2000/svg">
    <g fill="none" fill-rule="evenodd">
        <path stroke="#F8C036" stroke-width="1.5" stroke-linejoin="round" d="m2 8 5 3 5-8 5 8 5-3-3 9H5z"/>
        <path d="m12.207 10.134.594 1.26c.034.071.098.12.174.132l1.328.202a.234.234 0 0 1 .186.164.249.249 0 0 1-.059.247l-.96.981a.249.249 0 0 0-.067.213l.227 1.385a.246.246 0 0 1-.092.236.222.222 0 0 1-.243.018l-1.188-.654a.222.222 0 0 0-.214 0l-1.188.654a.222.222 0 0 1-.243-.018.246.246 0 0 1-.092-.236l.227-1.385a.248.248 0 0 0-.066-.213l-.961-.98a.249.249 0 0 1-.059-.248c.027-.087.1-.15.186-.164l1.328-.202a.231.231 0 0 0 .174-.132l.594-1.26c.085-.179.33-.179.414 0z" fill="#F8C036" fill-rule="nonzero"/>
        <path stroke="#F8C036" stroke-width="1.5" stroke-linejoin="round" d="M5 17h14v3H5z"/>
    </g>
</svg>
