<svg width="24" height="24" viewBox="0 0 24 24" xmlns="http://www.w3.org/2000/svg">
    <g fill="#272724" fill-rule="nonzero">
        <path d="M23.258 4.175A3.065 3.065 0 0 0 20.9 3.072H4.344l-.043-.36A3.072 3.072 0 0 0 1.25 0h-.227a1.024 1.024 0 1 0 0 2.048h.227c.52 0 .956.389 1.017.904l1.41 11.981a5.12 5.12 0 0 0 5.084 4.523h10.694a1.024 1.024 0 0 0 0-2.048H8.762a3.072 3.072 0 0 1-2.887-2.048H18.08a5.12 5.12 0 0 0 5.039-4.212l.804-4.458a3.066 3.066 0 0 0-.666-2.515zm-1.344 2.151-.805 4.459a3.072 3.072 0 0 1-3.028 2.527H5.549L4.585 5.12H20.9a1.024 1.024 0 0 1 1.014 1.206z"/>
        <circle cx="6.62" cy="21.98" r="1.5"/>
        <circle cx="17.86" cy="21.98" r="1.5"/>
    </g>
</svg>
