<svg width="24" height="24" viewBox="0 0 24 24" xmlns="http://www.w3.org/2000/svg">
    <path d="M13.06 2.855c0-.472.382-.854.853-.854a8.543 8.543 0 0 1 8.534 8.534.853.853 0 0 1-1.707 0 6.834 6.834 0 0 0-6.827-6.827.853.853 0 0 1-.853-.853zm.853 4.266a3.413 3.413 0 0 1 3.414 3.414.853.853 0 1 0 1.706 0 5.125 5.125 0 0 0-5.12-5.12.853.853 0 1 0 0 1.706zm7.76 9.164a2.645 2.645 0 0 1 0 3.736l-.777.895C13.907 27.607-3.1 10.605 3.488 3.594l.981-.854a2.63 2.63 0 0 1 3.693.034c.026.027 1.608 2.08 1.608 2.08a2.645 2.645 0 0 1-.006 3.655L8.775 9.75a10.906 10.906 0 0 0 5.915 5.927l1.25-.994a2.645 2.645 0 0 1 3.653-.006s2.053 1.58 2.08 1.607zm-1.175 1.241s-2.042-1.57-2.068-1.597a.939.939 0 0 0-1.322 0c-.023.024-1.744 1.395-1.744 1.395a.853.853 0 0 1-.835.13A12.808 12.808 0 0 1 7 9.937a.853.853 0 0 1 .124-.853S8.496 7.362 8.52 7.34a.939.939 0 0 0 0-1.322c-.026-.026-1.597-2.07-1.597-2.07a.939.939 0 0 0-1.289.034l-.98.853c-4.815 5.79 9.923 19.71 14.996 14.916l.777-.896a.957.957 0 0 0 .072-1.329z" fill="#000" fill-rule="nonzero"/>
</svg>
