<svg width="216" height="40" viewBox="0 0 216 40" xmlns="http://www.w3.org/2000/svg">
    <g fill-rule="nonzero" fill="none">
        <g fill="#4A2570">
            <path d="M11.943 35.952 0 1.479h6.189l9.141 27.59 9.199-27.59h6.141L18.728 35.952zM38.07 6.627c-.671.673-1.466 1.005-2.384 1.005-.918 0-1.713-.332-2.385-1.005-.672-.673-1.012-1.47-1.012-2.389 0-.92.33-1.716.984-2.39.653-.672 1.457-1.004 2.413-1.004.946 0 1.75.341 2.413 1.005.653.673.984 1.47.984 2.389-.01.92-.34 1.716-1.012 2.39zm-5.043 29.325V11.33h5.309v24.622h-5.31zM58.199 16.45h-6.094v11.822c0 1.015.227 1.754.69 2.19.455.446 1.136.692 2.044.74.9.047 2.026.038 3.37-.029v4.779c-4.06.493-6.985.142-8.754-1.062-1.77-1.195-2.65-3.404-2.65-6.627V16.449h-4.523v-5.12h4.523V6.012l5.309-1.574v6.893h6.094v5.12h-.01zM81.497 11.33h5.31v24.622h-5.31v-3.546c-1.996 2.787-4.864 4.18-8.602 4.18-3.378 0-6.264-1.25-8.65-3.763-2.393-2.512-3.586-5.575-3.586-9.187 0-3.64 1.193-6.713 3.587-9.206 2.394-2.494 5.28-3.745 8.65-3.745 3.737 0 6.605 1.375 8.601 4.134v-3.49zM68.173 29.277c1.476 1.498 3.331 2.238 5.555 2.238 2.224 0 4.079-.75 5.555-2.238 1.476-1.498 2.214-3.375 2.214-5.641s-.738-4.143-2.214-5.641c-1.476-1.498-3.322-2.238-5.555-2.238-2.233 0-4.079.75-5.555 2.238-1.476 1.498-2.214 3.375-2.214 5.64.01 2.267.747 4.154 2.214 5.642zM92.995 35.952V0h5.31v35.952z"/>
        </g>
        <path d="M113.76.625c3.282 0 6.018 1.105 8.228 3.325 2.2 2.22 3.3 4.974 3.3 8.26 0 3.258-1.1 6.001-3.3 8.231-2.2 2.23-4.946 3.345-8.228 3.345h-7.109v12.09h-5.711V.624h12.82zm0 17.732c1.693 0 3.08-.582 4.171-1.736 1.09-1.153 1.636-2.627 1.636-4.41 0-1.785-.545-3.248-1.636-4.412-1.09-1.154-2.487-1.735-4.171-1.735h-7.109v12.283h7.109v.01zM147.858 10.847h5.367v25.177h-5.367v-3.626c-2.02 2.85-4.918 4.276-8.697 4.276-3.416 0-6.334-1.28-8.745-3.85-2.42-2.568-3.625-5.7-3.625-9.393 0-3.723 1.205-6.864 3.625-9.414 2.421-2.55 5.339-3.83 8.745-3.83 3.779 0 6.678 1.406 8.697 4.227v-3.567zm-13.471 18.362c1.492 1.531 3.368 2.288 5.616 2.288 2.258 0 4.123-.766 5.616-2.288 1.492-1.532 2.239-3.452 2.239-5.769s-.747-4.236-2.24-5.768c-1.492-1.532-3.357-2.288-5.615-2.288s-4.124.766-5.616 2.288c-1.493 1.532-2.239 3.451-2.239 5.768 0 2.317.746 4.237 2.239 5.769zM203.673 30.997h12.074v5.138h-19.384v-3.626l11.634-16.413h-11.136v-5.138h18.379v3.625z" fill="#F04571"/>
        <path d="M183.208 40c-3.836 0-6.38-4.731-7.864-4.809-1.483-.077-3.052 2.57-6.046 4.072-1.483.756-4.602.35-6.774-1.93-6.19-7.222 3.119-18.584 5.396-12.883.411 1.037 1.837 1.076 2.23.029 3.72-9.957 7.48-7.01 9.94.339.363 1.095 1.894 1.134 2.305.048 1.35-3.538 3.923-3.354 6.602 2.841C190.92 32.855 189.13 40 183.208 40z" fill="#4A2570"/>
        <g fill="#4A2570">
            <path d="M192.125 10.731c.268.088.517.262.689.505.46.63 1.004 2.142-.249 5.332-1.808 4.624-3.32 5.07-5.28 4.217-1.962-.853-3.359-2.676-2.603-4.382.736-1.658 3.932-6.815 7.443-5.672zM182.587 2.442c.775-.029 1.492.379 1.932 1.067.67 1.047 1.426 2.986.593 5.768-1.31 4.421-3.042 6.089-5.549 4.828-2.506-1.26-3.07-3.403-2.592-5.235.478-1.832 1.32-3.83 3.597-5.681a3.496 3.496 0 0 1 2.019-.747zM167.69 2.733c.584-.552 1.369-.717 2.115-.543 1.08.252 2.679 1.086 3.55 3.772 1.396 4.304.363 7.542-1.178 8.114-1.54.572-5.108 1.377-5.826-3.209-.794-5.041.383-7.213 1.34-8.134zM161.28 9.83s4.325 3.19 4.181 7.232c-.153 4.043-2.746 4.285-3.377 4.246-.641-.038-4.171.194-4.812-5.458s1.09-8.376 4.008-6.02z"/>
        </g>
    </g>
</svg>
