<svg width="26" height="35" viewBox="0 0 26 35" xmlns="http://www.w3.org/2000/svg">
    <g fill="#4A2072" fill-rule="nonzero">
        <path d="M18.59 0h-.186a2.889 2.889 0 0 0-2.775 2.19 2.86 2.86 0 0 1-5.517 0A2.889 2.889 0 0 0 7.336 0H7.15A7.159 7.159 0 0 0 0 7.15v22.88a4.29 4.29 0 0 0 4.29 4.29h3.046a2.889 2.889 0 0 0 2.776-2.19 2.86 2.86 0 0 1 5.517 0 2.889 2.889 0 0 0 2.775 2.19h3.046a4.29 4.29 0 0 0 4.29-4.29V7.15A7.159 7.159 0 0 0 18.59 0zm2.86 31.46-3.064-.09a5.72 5.72 0 0 0-11.05.09H4.29c-.79 0-1.43-.64-1.43-1.43v-5.72h2.86a1.43 1.43 0 1 0 0-2.86H2.86V7.15a4.29 4.29 0 0 1 4.29-4.29l.205.09a5.734 5.734 0 0 0 5.515 4.2 5.822 5.822 0 0 0 5.567-4.29h.153a4.29 4.29 0 0 1 4.29 4.29v14.3h-2.86a1.43 1.43 0 1 0 0 2.86h2.86v5.72c0 .79-.64 1.43-1.43 1.43z"/>
        <path d="M14.3 21.45h-2.86a1.43 1.43 0 0 0 0 2.86h2.86a1.43 1.43 0 0 0 0-2.86z"/>
    </g>
</svg>
