<svg width="33" height="30" viewBox="0 0 33 30" xmlns="http://www.w3.org/2000/svg">
    <path d="M25.423 5.352h-2.81A6.702 6.702 0 0 0 16.056 0H6.69A6.698 6.698 0 0 0 0 6.69v12.042a5.352 5.352 0 0 0 4.096 5.188 4.683 4.683 0 1 0 9.232.164h5.462a4.636 4.636 0 0 0-.055.67 4.683 4.683 0 1 0 9.366 0 4.55 4.55 0 0 0-.081-.834 5.352 5.352 0 0 0 4.093-5.188v-6.69a6.698 6.698 0 0 0-6.69-6.69zm4.014 6.69v1.338h-6.69V8.028h2.676a4.014 4.014 0 0 1 4.014 4.014zm-26.76 6.69V6.69A4.014 4.014 0 0 1 6.69 2.676h9.366A4.014 4.014 0 0 1 20.07 6.69v14.718H5.352a2.676 2.676 0 0 1-2.676-2.676zm8.027 6.021a2.007 2.007 0 0 1-4.014 0c.001-.228.043-.455.125-.669h3.765c.081.214.123.44.124.67zm12.711 2.008a2.007 2.007 0 0 1-2.007-2.008c.001-.228.043-.455.125-.669h3.765c.082.214.124.44.125.67a2.007 2.007 0 0 1-2.008 2.007zm3.346-5.353h-4.015v-5.352h6.69v2.676a2.676 2.676 0 0 1-2.675 2.676z" fill="#4A2072" fill-rule="nonzero"/>
</svg>
