<svg width="34" height="34" viewBox="0 0 34 34" xmlns="http://www.w3.org/2000/svg">
    <path d="M17 0C7.611 0 0 7.611 0 17s7.611 17 17 17 17-7.611 17-17C33.99 7.615 26.385.01 17 0zm12.25 9.917h-4.563a27.874 27.874 0 0 0-3.997-6.58 14.21 14.21 0 0 1 8.56 6.58zM23.375 17a14.466 14.466 0 0 1-.674 4.25H11.299a14.466 14.466 0 0 1-.674-4.25c.012-1.442.239-2.875.674-4.25h11.402c.435 1.375.662 2.808.674 4.25zm-10.94 7.083h9.13a27.787 27.787 0 0 1-4.565 6.5 27.724 27.724 0 0 1-4.565-6.5zm0-14.166A27.787 27.787 0 0 1 17 3.417a27.724 27.724 0 0 1 4.564 6.5h-9.129zm.882-6.58a27.874 27.874 0 0 0-4.004 6.58H4.75a14.21 14.21 0 0 1 8.567-6.58zm-9.83 9.413h4.871A17.023 17.023 0 0 0 7.792 17c.009 1.435.2 2.863.566 4.25H3.486a14.155 14.155 0 0 1 0-8.5zM4.75 24.083h4.563a27.874 27.874 0 0 0 4.004 6.58 14.21 14.21 0 0 1-8.567-6.58zm15.94 6.58a27.874 27.874 0 0 0 3.997-6.58h4.563a14.21 14.21 0 0 1-8.56 6.58zm9.824-9.413h-4.872c.367-1.387.557-2.815.566-4.25a17.023 17.023 0 0 0-.566-4.25h4.869c.87 2.766.87 5.734 0 8.5h.003z" fill="#4A2072" fill-rule="nonzero"/>
</svg>
