<svg width="34" height="34" viewBox="0 0 34 34" xmlns="http://www.w3.org/2000/svg">
    <path d="M33.343 20.844a2.818 2.818 0 0 0-2.446-1.016 16.988 16.988 0 0 0-12.48 7.061v-7.201a8.516 8.516 0 0 0 7.084-8.384c0-3.961-2.753-7.308-5.447-10.058a4.367 4.367 0 0 0-6.109 0C11.252 3.996 8.5 7.343 8.5 11.304a8.516 8.516 0 0 0 7.084 8.384v7.201a16.988 16.988 0 0 0-12.48-7.061 2.82 2.82 0 0 0-2.446 1.016A2.798 2.798 0 0 0 .1 23.386C2.989 33.794 16.42 34 16.99 34h.017c.567 0 14.004-.206 16.893-10.614a2.804 2.804 0 0 0-.558-2.542zm-22.01-9.54c0-3.764 4.7-8.112 4.729-8.136-.517 1.328-3.748 9.413-.48 9.555.783 0 1.418-.635 1.418-1.419.107-2.522.712-4.999 1.78-7.286 2.028 2.17 3.887 4.668 3.887 7.286A5.67 5.67 0 0 1 17 16.978a5.67 5.67 0 0 1-5.668-5.674zM2.84 22.652a14.548 14.548 0 0 1 11.99 8.317c-3.539-.491-10.298-2.217-11.99-8.317zm16.349 8.314a14.706 14.706 0 0 1 11.979-8.34c-1.692 6.102-8.436 7.843-11.98 8.34z" fill="#4A2072" fill-rule="nonzero"/>
</svg>
