<svg width="34" height="34" viewBox="0 0 34 34" xmlns="http://www.w3.org/2000/svg">
    <path d="M21.379 22.667C30.686 22.616 34 17.686 34 13.458a4.958 4.958 0 0 0-3.916-4.843c.193-.548.36-1.051.472-1.432a5.507 5.507 0 0 0-.887-4.9A5.637 5.637 0 0 0 25.116 0H8.884A5.637 5.637 0 0 0 4.33 2.284a5.507 5.507 0 0 0-.887 4.899c.112.38.283.884.472 1.432A4.958 4.958 0 0 0 0 13.458c0 4.228 3.314 9.158 12.621 9.209.083.43.126.867.129 1.304v4.362a2.668 2.668 0 0 1-2.833 2.834H8.5A1.417 1.417 0 1 0 8.5 34h17a1.417 1.417 0 1 0 0-2.833h-1.405a2.67 2.67 0 0 1-2.845-2.834V23.97c.003-.437.046-.874.129-1.303zm7.663-11.334c1.173 0 2.125.952 2.125 2.125 0 2.882-2.28 5.95-8.551 6.333a6.867 6.867 0 0 1 1.08-1.163 21.437 21.437 0 0 0 5.28-7.309c.022.002.042.014.066.014zM2.833 13.458c0-1.173.952-2.125 2.125-2.125.024 0 .044-.012.067-.014a21.437 21.437 0 0 0 5.28 7.309c.403.344.766.735 1.08 1.163-6.272-.383-8.552-3.451-8.552-6.333zm12.06 17.709a5.78 5.78 0 0 0 .69-2.834v-4.362a9.817 9.817 0 0 0-3.444-7.5A21.729 21.729 0 0 1 6.161 6.374a2.692 2.692 0 0 1 .44-2.4 2.825 2.825 0 0 1 2.283-1.142h16.232c.9-.003 1.749.423 2.284 1.148.521.684.684 1.576.439 2.4a21.729 21.729 0 0 1-5.978 10.09 9.815 9.815 0 0 0-3.444 7.499v4.363a5.78 5.78 0 0 0 .69 2.834h-4.214z" fill="#4A2072" fill-rule="nonzero"/>
</svg>
