<svg width="28" height="33" viewBox="0 0 28 33" xmlns="http://www.w3.org/2000/svg">
    <g fill="#4A2072" fill-rule="nonzero">
        <path d="M22.463 2.963 13.976.133a1.355 1.355 0 0 0-.857 0l-8.487 2.83A6.764 6.764 0 0 0 0 9.388v6.933c0 10.246 12.464 15.904 12.997 16.14.35.156.75.156 1.1 0 .534-.236 12.998-5.894 12.998-16.14V9.388a6.764 6.764 0 0 0-4.632-6.425zm1.923 13.358c0 7.39-8.561 12.237-10.838 13.397C11.268 28.562 2.71 23.73 2.71 16.32V9.388c0-1.75 1.12-3.302 2.78-3.855l8.058-2.687 8.058 2.687a4.064 4.064 0 0 1 2.78 3.855v6.933z"/>
        <path d="m18.018 11.308-5.674 5.69-3.04-3.17a1.355 1.355 0 1 0-1.952 1.877l3.124 3.252c.471.508 1.13.802 1.822.813h.045a2.538 2.538 0 0 0 1.809-.75l5.787-5.787a1.36 1.36 0 0 0-1.92-1.925z"/>
    </g>
</svg>
